P3
# Created by GIMP version 2.10.20 PNM plug-in
65 61
255
255
255
255
255
254
254
241
206
205
228
146
145
225
131
129
225
131
129
225
131
129
225
131
129
225
131
129
225
131
129
225
131
129
225
131
129
225
131
129
225
131
129
225
131
129
225
131
129
225
131
129
225
131
129
225
131
129
225
131
129
225
131
129
225
131
129
225
131
129
225
131
129
225
131
129
225
131
129
225
131
129
225
131
129
225
131
129
225
131
129
225
131
129
225
131
129
225
131
129
225
131
129
225
131
129
225
131
129
225
131
129
225
131
129
225
131
129
225
131
129
225
131
129
225
131
129
225
131
129
225
131
129
225
131
129
225
131
129
225
131
129
225
131
129
225
131
129
225
131
129
225
131
129
225
131
129
225
131
129
225
131
129
225
131
129
225
131
129
225
131
129
225
131
129
225
131
129
225
131
129
225
131
129
228
148
147
242
212
212
255
255
255
255
255
255
255
255
255
232
169
169
216
36
28
216
36
28
216
36
28
216
36
28
216
36
28
216
36
28
216
36
28
216
36
28
216
36
28
216
36
28
216
36
28
216
36
28
216
36
28
216
36
28
216
36
28
216
36
28
216
36
28
216
36
28
216
36
28
216
36
28
216
36
28
216
36
28
216
36
28
216
36
28
216
36
28
216
36
28
216
36
28
216
36
28
216
36
28
216
36
28
216
36
28
216
36
28
216
36
28
216
36
28
216
36
28
216
36
28
216
36
28
216
36
28
216
36
28
216
36
28
216
36
28
216
36
28
216
36
28
216
36
28
216
36
28
216
36
28
216
36
28
216
36
28
216
36
28
216
36
28
216
36
28
216
36
28
216
36
28
216
36
28
216
36
28
216
36
28
216
36
28
216
36
28
216
36
28
216
36
28
216
36
28
235
183
182
255
255
255
247
227
227
216
40
33
216
36
28
216
36
28
216
36
28
216
36
28
216
36
28
216
36
28
216
36
28
216
36
28
216
36
28
216
36
28
216
36
28
216
36
28
216
36
28
216
36
28
216
36
28
216
36
28
216
36
28
216
36
28
216
36
28
216
36
28
216
36
28
216
36
28
216
36
28
216
36
28
216
36
28
216
36
28
216
36
28
216
36
28
216
36
28
216
36
28
216
36
28
216
36
28
216
36
28
216
36
28
216
36
28
216
36
28
216
36
28
216
36
28
216
36
28
216
36
28
216
36
28
216
36
28
216
36
28
216
36
28
216
36
28
216
36
28
216
36
28
216
36
28
216
36
28
216
36
28
216
36
28
216
36
28
216
36
28
216
36
28
216
36
28
216
36
28
216
36
28
216
36
28
216
36
28
216
36
28
216
36
28
217
48
42
249
236
236
237
192
191
216
36
28
216
36
28
216
36
28
216
36
28
216
36
28
216
36
28
216
36
28
216
36
28
216
36
28
216
36
28
216
36
28
216
36
28
216
36
28
216
36
28
216
36
28
216
36
28
216
36
28
216
36
28
216
36
28
216
36
28
216
36
28
216
36
28
216
36
28
216
36
28
216
36
28
216
36
28
216
36
28
216
36
28
216
36
28
216
36
28
216
36
28
216
36
28
216
36
28
216
36
28
216
36
28
216
36
28
216
36
28
216
36
28
216
36
28
216
36
28
216
36
28
216
36
28
216
36
28
216
36
28
216
36
28
216
36
28
216
36
28
216
36
28
216
36
28
216
36
28
216
36
28
216
36
28
216
36
28
216
36
28
216
36
28
216
36
28
216
36
28
216
36
28
216
36
28
216
36
28
216
36
28
216
36
28
216
36
28
240
204
204
235
183
183
216
36
28
216
36
28
216
36
28
216
36
28
216
36
28
216
36
28
216
36
28
216
36
28
216
36
28
216
36
28
216
36
28
216
36
28
216
36
28
216
36
28
216
36
28
216
36
28
216
36
28
216
36
28
216
36
28
216
36
28
216
36
28
216
36
28
216
36
28
216
36
28
216
36
28
216
36
28
216
36
28
216
36
28
216
36
28
216
36
28
216
36
28
216
36
28
216
36
28
216
36
28
216
36
28
216
36
28
216
36
28
216
36
28
216
36
28
216
36
28
216
36
28
216
36
28
216
36
28
216
36
28
216
36
28
216
36
28
216
36
28
216
36
28
216
36
28
216
36
28
216
36
28
216
36
28
216
36
28
216
36
28
216
36
28
216
36
28
216
36
28
216
36
28
216
36
28
216
36
28
216
36
28
216
36
28
216
36
28
239
200
199
235
183
183
216
36
28
216
36
28
216
36
28
216
36
28
216
36
28
216
36
28
216
36
28
216
36
28
216
36
28
216
36
28
216
36
28
216
36
28
216
36
28
216
36
28
216
36
28
216
36
28
216
36
28
216
36
28
216
36
28
216
36
28
216
36
28
216
36
28
216
36
28
216
36
28
216
36
28
216
36
28
216
36
28
216
36
28
216
36
28
216
36
28
216
36
28
216
36
28
216
36
28
216
36
28
216
36
28
216
36
28
216
36
28
216
36
28
216
36
28
216
36
28
216
36
28
216
36
28
216
36
28
216
36
28
216
36
28
216
36
28
216
36
28
216
36
28
216
36
28
216
36
28
216
36
28
216
36
28
216
36
28
216
36
28
216
36
28
216
36
28
216
36
28
216
36
28
216
36
28
216
36
28
216
36
28
216
36
28
216
36
28
239
200
199
235
183
183
216
36
28
216
36
28
216
36
28
216
36
28
216
36
28
216
36
28
216
36
28
216
36
28
216
36
28
216
36
28
216
36
28
216
36
28
216
36
28
216
36
28
216
36
28
216
36
28
216
36
28
216
36
28
216
36
28
216
36
28
216
36
28
216
36
28
216
36
28
216
36
28
216
36
28
216
36
28
216
36
28
216
36
28
216
36
28
216
36
28
216
36
28
216
36
28
216
36
28
216
36
28
216
36
28
216
36
28
216
36
28
216
36
28
216
36
28
216
36
28
216
36
28
216
36
28
216
36
28
216
36
28
216
36
28
216
36
28
216
36
28
216
36
28
216
36
28
216
36
28
216
36
28
216
36
28
216
36
28
216
36
28
216
36
28
216
36
28
216
36
28
216
36
28
216
36
28
216
36
28
216
36
28
216
36
28
216
36
28
239
200
199
235
183
183
216
36
28
216
36
28
216
36
28
216
36
28
216
36
28
216
36
28
216
36
28
216
36
28
216
36
28
216
36
28
216
36
28
216
36
28
216
36
28
216
36
28
216
36
28
216
36
28
216
36
28
216
36
28
216
36
28
216
36
28
216
36
28
216
36
28
216
36
28
216
36
28
216
36
28
216
36
28
216
36
28
216
36
28
216
36
28
216
36
28
216
36
28
216
36
28
216
36
28
216
36
28
216
36
28
216
36
28
216
36
28
216
36
28
216
36
28
216
36
28
216
36
28
216
36
28
216
36
28
216
36
28
216
36
28
216
36
28
216
36
28
216
36
28
216
36
28
216
36
28
216
36
28
216
36
28
216
36
28
216
36
28
216
36
28
216
36
28
216
36
28
216
36
28
216
36
28
216
36
28
216
36
28
216
36
28
216
36
28
239
200
199
235
183
183
216
36
28
216
36
28
216
36
28
216
36
28
216
36
28
216
36
28
216
36
28
216
36
28
216
36
28
216
36
28
216
36
28
216
36
28
216
36
28
216
36
28
216
36
28
216
36
28
216
36
28
216
36
28
216
36
28
216
36
28
216
36
28
216
36
28
216
36
28
216
36
28
216
36
28
216
36
28
216
36
28
216
36
28
216
36
28
216
36
28
216
36
28
216
36
28
216
36
28
216
36
28
216
36
28
216
36
28
216
36
28
216
36
28
216
36
28
216
36
28
216
36
28
216
36
28
216
36
28
216
36
28
216
36
28
216
36
28
216
36
28
216
36
28
216
36
28
216
36
28
216
36
28
216
36
28
216
36
28
216
36
28
216
36
28
216
36
28
216
36
28
216
36
28
216
36
28
216
36
28
216
36
28
216
36
28
216
36
28
239
200
199
235
183
183
216
36
28
216
36
28
216
36
28
216
36
28
216
36
28
216
36
28
216
36
28
216
36
28
216
36
28
216
36
28
216
36
28
216
36
28
216
36
28
216
36
28
216
36
28
216
36
28
216
36
28
216
36
28
216
36
28
216
36
28
216
36
28
216
36
28
216
36
28
216
36
28
216
36
28
216
36
28
216
36
28
216
36
28
216
36
28
216
36
28
216
36
28
216
36
28
216
36
28
216
36
28
216
36
28
216
36
28
216
36
28
216
36
28
216
36
28
216
36
28
216
36
28
216
36
28
216
36
28
216
36
28
216
36
28
216
36
28
216
36
28
216
36
28
216
36
28
216
36
28
216
36
28
216
36
28
216
36
28
216
36
28
216
36
28
216
36
28
216
36
28
216
36
28
216
36
28
216
36
28
216
36
28
216
36
28
216
36
28
239
200
199
235
183
183
216
36
28
216
36
28
216
36
28
216
36
28
216
36
28
216
36
28
216
36
28
216
36
28
216
36
28
216
36
28
216
36
28
216
36
28
216
36
28
216
36
28
216
36
28
216
36
28
216
36
28
216
36
28
216
36
28
216
36
28
216
36
28
216
36
28
216
36
28
216
36
28
216
36
28
216
36
28
216
36
28
216
36
28
216
36
28
216
36
28
216
36
28
216
36
28
216
36
28
216
36
28
216
36
28
216
36
28
216
36
28
216
36
28
216
36
28
216
36
28
216
36
28
216
36
28
216
36
28
216
36
28
216
36
28
216
36
28
216
36
28
216
36
28
216
36
28
216
36
28
216
36
28
216
36
28
216
36
28
216
36
28
216
36
28
216
36
28
216
36
28
216
36
28
216
36
28
216
36
28
216
36
28
216
36
28
216
36
28
239
200
199
235
183
183
216
36
28
216
36
28
216
36
28
216
36
28
216
36
28
216
36
28
216
36
28
216
36
28
216
36
28
216
36
28
216
36
28
216
36
28
216
36
28
216
36
28
216
36
28
216
36
28
216
36
28
216
36
28
216
36
28
216
36
28
216
36
28
216
36
28
216
36
28
216
36
28
216
36
28
216
36
28
216
36
28
216
36
28
216
36
28
216
36
28
216
36
28
216
36
28
216
36
28
216
36
28
216
36
28
216
36
28
216
36
28
216
36
28
216
36
28
216
36
28
216
36
28
216
36
28
216
36
28
216
36
28
216
36
28
216
36
28
216
36
28
216
36
28
216
36
28
216
36
28
216
36
28
216
36
28
216
36
28
216
36
28
216
36
28
216
36
28
216
36
28
216
36
28
216
36
28
216
36
28
216
36
28
216
36
28
216
36
28
239
200
199
235
183
183
216
36
28
216
36
28
216
36
28
216
36
28
216
36
28
216
36
28
216
36
28
216
36
28
216
36
28
216
36
28
216
36
28
216
36
28
216
36
28
216
36
28
216
36
28
216
36
28
216
36
28
216
36
28
216
36
28
216
36
28
216
36
28
216
36
28
216
36
28
216
36
28
216
36
28
216
36
28
216
36
28
216
36
28
216
36
28
216
36
28
216
36
28
216
36
28
216
36
28
216
36
28
216
36
28
216
36
28
216
36
28
216
36
28
216
36
28
216
36
28
216
36
28
216
36
28
216
36
28
216
36
28
216
36
28
216
36
28
216
36
28
216
36
28
216
36
28
216
36
28
216
36
28
216
36
28
216
36
28
216
36
28
216
36
28
216
36
28
216
36
28
216
36
28
216
36
28
216
36
28
216
36
28
216
36
28
216
36
28
239
200
199
235
183
183
216
36
28
216
36
28
216
36
28
216
36
28
216
36
28
216
36
28
216
36
28
216
36
28
216
36
28
216
36
28
216
36
28
216
36
28
216
36
28
216
36
28
216
36
28
216
36
28
216
36
28
216
36
28
216
36
28
216
36
28
216
36
28
216
36
28
216
36
28
216
36
28
216
36
28
216
36
28
216
36
28
216
36
28
216
36
28
216
36
28
216
36
28
216
36
28
216
36
28
216
36
28
216
36
28
216
36
28
216
36
28
216
36
28
216
36
28
216
36
28
216
36
28
216
36
28
216
36
28
216
36
28
216
36
28
216
36
28
216
36
28
216
36
28
216
36
28
216
36
28
216
36
28
216
36
28
216
36
28
216
36
28
216
36
28
216
36
28
216
36
28
216
36
28
216
36
28
216
36
28
216
36
28
216
36
28
216
36
28
239
200
199
235
183
183
216
36
28
216
36
28
216
36
28
216
36
28
216
36
28
216
36
28
216
36
28
216
36
28
216
36
28
216
36
28
216
36
28
216
36
28
216
36
28
216
36
28
216
36
28
216
36
28
216
36
28
216
36
28
216
36
28
216
36
28
216
36
28
216
36
28
216
36
28
216
36
28
216
36
28
216
36
28
216
36
28
216
36
28
216
36
28
216
36
28
216
36
28
216
36
28
216
36
28
216
36
28
216
36
28
216
36
28
216
36
28
216
36
28
216
36
28
216
36
28
216
36
28
216
36
28
216
36
28
216
36
28
216
36
28
216
36
28
216
36
28
216
36
28
216
36
28
216
36
28
216
36
28
216
36
28
216
36
28
216
36
28
216
36
28
216
36
28
216
36
28
216
36
28
216
36
28
216
36
28
216
36
28
216
36
28
216
36
28
239
200
199
235
183
183
216
36
28
216
36
28
216
36
28
216
36
28
216
36
28
216
36
28
216
36
28
216
36
28
216
36
28
216
36
28
216
36
28
216
36
28
216
36
28
216
36
28
216
36
28
216
36
28
216
36
28
216
36
28
216
36
28
216
36
28
216
36
28
216
36
28
216
36
28
216
36
28
216
36
28
216
36
28
216
36
28
216
36
28
216
36
28
216
36
28
216
36
28
216
36
28
216
36
28
216
36
28
216
36
28
216
36
28
216
36
28
216
36
28
216
36
28
216
36
28
216
36
28
216
36
28
216
36
28
216
36
28
216
36
28
216
36
28
216
36
28
216
36
28
216
36
28
216
36
28
216
36
28
216
36
28
216
36
28
216
36
28
216
36
28
216
36
28
216
36
28
216
36
28
216
36
28
216
36
28
216
36
28
216
36
28
216
36
28
239
200
199
235
183
183
216
36
28
216
36
28
216
36
28
216
36
28
216
36
28
216
36
28
216
36
28
216
36
28
216
36
28
216
36
28
216
36
28
216
36
28
216
36
28
216
36
28
216
36
28
216
36
28
216
36
28
216
36
28
216
36
28
216
36
28
216
36
28
216
36
28
216
36
28
216
36
28
216
36
28
216
36
28
216
36
28
216
36
28
216
36
28
216
36
28
216
36
28
216
36
28
216
36
28
216
36
28
216
36
28
216
36
28
216
36
28
216
36
28
216
36
28
216
36
28
216
36
28
216
36
28
216
36
28
216
36
28
216
36
28
216
36
28
216
36
28
216
36
28
216
36
28
216
36
28
216
36
28
216
36
28
216
36
28
216
36
28
216
36
28
216
36
28
216
36
28
216
36
28
216
36
28
216
36
28
216
36
28
216
36
28
216
36
28
239
200
199
235
183
183
216
36
28
216
36
28
216
36
28
216
36
28
216
36
28
216
36
28
216
36
28
216
36
28
216
36
28
216
36
28
216
36
28
216
36
28
216
36
28
216
36
28
216
36
28
216
36
28
216
36
28
216
36
28
216
36
28
216
36
28
216
36
28
216
36
28
216
36
28
216
36
28
216
36
28
216
36
28
216
36
28
216
36
28
216
36
28
216
36
28
216
36
28
216
36
28
216
36
28
216
36
28
216
36
28
216
36
28
216
36
28
216
36
28
216
36
28
216
36
28
216
36
28
216
36
28
216
36
28
216
36
28
216
36
28
216
36
28
216
36
28
216
36
28
216
36
28
216
36
28
216
36
28
216
36
28
216
36
28
216
36
28
216
36
28
216
36
28
216
36
28
216
36
28
216
36
28
216
36
28
216
36
28
216
36
28
216
36
28
239
200
199
235
183
183
216
36
28
216
36
28
216
36
28
216
36
28
216
36
28
216
36
28
216
36
28
216
36
28
216
36
28
216
36
28
216
36
28
216
36
28
216
36
28
216
36
28
216
36
28
216
36
28
216
36
28
216
36
28
216
36
28
216
36
28
216
36
28
216
36
28
216
36
28
216
36
28
216
36
28
216
36
28
216
36
28
216
36
28
216
36
28
216
36
28
216
36
28
216
36
28
216
36
28
216
36
28
216
36
28
216
36
28
216
36
28
216
36
28
216
36
28
216
36
28
216
36
28
216
36
28
216
36
28
216
36
28
216
36
28
216
36
28
216
36
28
216
36
28
216
36
28
216
36
28
216
36
28
216
36
28
216
36
28
216
36
28
216
36
28
216
36
28
216
36
28
216
36
28
216
36
28
216
36
28
216
36
28
216
36
28
216
36
28
239
200
199
235
183
183
216
36
28
216
36
28
216
36
28
216
36
28
216
36
28
216
36
28
216
36
28
216
36
28
216
36
28
216
36
28
216
36
28
216
36
28
216
36
28
216
36
28
216
36
28
216
36
28
216
36
28
216
36
28
216
36
28
216
36
28
216
36
28
216
36
28
216
36
28
216
36
28
216
36
28
216
36
28
216
36
28
216
36
28
216
36
28
216
36
28
216
36
28
216
36
28
216
36
28
216
36
28
216
36
28
216
36
28
216
36
28
216
36
28
216
36
28
216
36
28
216
36
28
216
36
28
216
36
28
216
36
28
216
36
28
216
36
28
216
36
28
216
36
28
216
36
28
216
36
28
216
36
28
216
36
28
216
36
28
216
36
28
216
36
28
216
36
28
216
36
28
216
36
28
216
36
28
216
36
28
216
36
28
216
36
28
216
36
28
239
200
199
235
183
183
216
36
28
216
36
28
216
36
28
216
36
28
216
36
28
216
36
28
216
36
28
216
36
28
216
36
28
216
36
28
216
36
28
216
36
28
216
36
28
216
36
28
216
36
28
216
36
28
216
36
28
216
36
28
216
36
28
216
36
28
216
36
28
216
36
28
216
36
28
216
36
28
216
36
28
216
36
28
216
36
28
216
36
28
216
36
28
216
36
28
216
36
28
216
36
28
216
36
28
216
36
28
216
36
28
216
36
28
216
36
28
216
36
28
216
36
28
216
36
28
216
36
28
216
36
28
216
36
28
216
36
28
216
36
28
216
36
28
216
36
28
216
36
28
216
36
28
216
36
28
216
36
28
216
36
28
216
36
28
216
36
28
216
36
28
216
36
28
216
36
28
216
36
28
216
36
28
216
36
28
216
36
28
216
36
28
216
36
28
239
200
199
235
183
183
216
36
28
216
36
28
216
36
28
216
36
28
216
36
28
216
36
28
216
36
28
216
36
28
216
36
28
216
36
28
216
36
28
216
36
28
216
36
28
216
36
28
216
36
28
216
36
28
216
36
28
216
36
28
216
36
28
216
36
28
216
36
28
216
36
28
216
36
28
216
36
28
216
36
28
216
36
28
216
36
28
216
36
28
216
36
28
216
36
28
216
36
28
216
36
28
216
36
28
216
36
28
216
36
28
216
36
28
216
36
28
216
36
28
216
36
28
216
36
28
216
36
28
216
36
28
216
36
28
216
36
28
216
36
28
216
36
28
216
36
28
216
36
28
216
36
28
216
36
28
216
36
28
216
36
28
216
36
28
216
36
28
216
36
28
216
36
28
216
36
28
216
36
28
216
36
28
216
36
28
216
36
28
216
36
28
216
36
28
239
200
199
235
183
183
216
36
28
216
36
28
216
36
28
216
36
28
216
36
28
216
36
28
216
36
28
216
36
28
216
36
28
216
36
28
216
36
28
216
36
28
216
36
28
216
36
28
216
36
28
216
36
28
216
36
28
216
36
28
216
36
28
216
36
28
216
36
28
216
36
28
216
36
28
216
36
28
216
36
28
216
36
28
216
36
28
216
36
28
216
36
28
216
36
28
216
36
28
216
36
28
216
36
28
216
36
28
216
36
28
216
36
28
216
36
28
216
36
28
216
36
28
216
36
28
216
36
28
216
36
28
216
36
28
216
36
28
216
36
28
216
36
28
216
36
28
216
36
28
216
36
28
216
36
28
216
36
28
216
36
28
216
36
28
216
36
28
216
36
28
216
36
28
216
36
28
216
36
28
216
36
28
216
36
28
216
36
28
216
36
28
216
36
28
239
200
199
235
183
183
216
36
28
216
36
28
216
36
28
216
36
28
216
36
28
216
36
28
216
36
28
216
36
28
216
36
28
216
36
28
216
36
28
216
36
28
216
36
28
216
36
28
216
36
28
216
36
28
216
36
28
216
36
28
216
36
28
216
36
28
216
36
28
216
36
28
216
36
28
216
36
28
216
36
28
216
36
28
216
36
28
216
36
28
216
36
28
216
36
28
216
36
28
216
36
28
216
36
28
216
36
28
216
36
28
216
36
28
216
36
28
216
36
28
216
36
28
216
36
28
216
36
28
216
36
28
216
36
28
216
36
28
216
36
28
216
36
28
216
36
28
216
36
28
216
36
28
216
36
28
216
36
28
216
36
28
216
36
28
216
36
28
216
36
28
216
36
28
216
36
28
216
36
28
216
36
28
216
36
28
216
36
28
216
36
28
216
36
28
239
200
199
235
183
183
216
36
28
216
36
28
216
36
28
216
36
28
216
36
28
216
36
28
216
36
28
216
36
28
216
36
28
216
36
28
216
36
28
216
36
28
216
36
28
216
36
28
216
36
28
216
36
28
216
36
28
216
36
28
216
36
28
216
36
28
216
36
28
216
36
28
216
36
28
216
36
28
216
36
28
216
36
28
216
36
28
216
36
28
216
36
28
216
36
28
216
36
28
216
36
28
216
36
28
216
36
28
216
36
28
216
36
28
216
36
28
216
36
28
216
36
28
216
36
28
216
36
28
216
36
28
216
36
28
216
36
28
216
36
28
216
36
28
216
36
28
216
36
28
216
36
28
216
36
28
216
36
28
216
36
28
216
36
28
216
36
28
216
36
28
216
36
28
216
36
28
216
36
28
216
36
28
216
36
28
216
36
28
216
36
28
216
36
28
239
200
199
235
183
183
216
36
28
216
36
28
216
36
28
216
36
28
216
36
28
216
36
28
216
36
28
216
36
28
216
36
28
216
36
28
216
36
28
216
36
28
216
36
28
216
36
28
216
36
28
216
36
28
216
36
28
216
36
28
216
36
28
216
36
28
216
36
28
216
36
28
216
36
28
216
36
28
216
36
28
216
36
28
216
36
28
216
36
28
216
36
28
216
36
28
216
36
28
216
36
28
216
36
28
216
36
28
216
36
28
216
36
28
216
36
28
216
36
28
216
36
28
216
36
28
216
36
28
216
36
28
216
36
28
216
36
28
216
36
28
216
36
28
216
36
28
216
36
28
216
36
28
216
36
28
216
36
28
216
36
28
216
36
28
216
36
28
216
36
28
216
36
28
216
36
28
216
36
28
216
36
28
216
36
28
216
36
28
216
36
28
216
36
28
239
200
199
235
183
183
216
36
28
216
36
28
216
36
28
216
36
28
216
36
28
216
36
28
216
36
28
216
36
28
216
36
28
216
36
28
216
36
28
216
36
28
216
36
28
216
36
28
216
36
28
216
36
28
216
36
28
216
36
28
216
36
28
216
36
28
216
36
28
216
36
28
216
36
28
216
36
28
216
36
28
216
36
28
216
36
28
216
36
28
216
36
28
216
36
28
216
36
28
216
36
28
216
36
28
216
36
28
216
36
28
216
36
28
216
36
28
216
36
28
216
36
28
216
36
28
216
36
28
216
36
28
216
36
28
216
36
28
216
36
28
216
36
28
216
36
28
216
36
28
216
36
28
216
36
28
216
36
28
216
36
28
216
36
28
216
36
28
216
36
28
216
36
28
216
36
28
216
36
28
216
36
28
216
36
28
216
36
28
216
36
28
216
36
28
239
200
199
235
183
183
216
36
28
216
36
28
216
36
28
216
36
28
216
36
28
216
36
28
216
36
28
216
36
28
216
36
28
216
36
28
216
36
28
216
36
28
216
36
28
216
36
28
216
36
28
216
36
28
216
36
28
216
36
28
216
36
28
216
36
28
216
36
28
216
36
28
216
36
28
216
36
28
219
78
75
225
130
128
232
166
166
237
190
189
240
204
204
243
215
214
245
221
221
245
223
222
244
216
216
242
209
209
238
196
195
234
176
175
228
146
145
221
98
96
216
44
38
216
36
28
216
36
28
216
36
28
216
36
28
216
36
28
216
36
28
216
36
28
216
36
28
216
36
28
216
36
28
216
36
28
216
36
28
216
36
28
216
36
28
216
36
28
216
36
28
216
36
28
216
36
28
216
36
28
216
36
28
216
36
28
216
36
28
216
36
28
216
36
28
239
200
199
235
183
183
216
36
28
216
36
28
216
36
28
216
36
28
216
36
28
216
36
28
216
36
28
216
36
28
216
36
28
216
36
28
216
36
28
216
36
28
216
36
28
216
36
28
216
36
28
216
36
28
216
36
28
216
36
28
216
36
28
216
36
28
217
57
52
226
139
137
238
196
196
248
232
232
254
251
251
255
255
255
255
255
255
255
255
255
255
255
255
255
255
255
255
255
255
255
255
255
255
255
255
255
255
255
255
255
255
255
255
255
255
255
255
255
254
254
251
241
241
242
211
210
231
165
164
219
87
84
216
36
28
216
36
28
216
36
28
216
36
28
216
36
28
216
36
28
216
36
28
216
36
28
216
36
28
216
36
28
216
36
28
216
36
28
216
36
28
216
36
28
216
36
28
216
36
28
216
36
28
216
36
28
216
36
28
216
36
28
216
36
28
239
200
199
235
183
183
216
36
28
216
36
28
216
36
28
216
36
28
216
36
28
216
36
28
216
36
28
216
36
28
216
36
28
216
36
28
216
36
28
216
36
28
216
36
28
216
36
28
216
36
28
216
36
28
216
36
28
216
36
28
223
117
116
239
199
198
251
243
243
255
255
255
255
255
255
255
255
255
255
255
255
255
255
255
255
255
255
255
255
255
255
254
254
255
254
254
254
253
253
254
253
253
254
253
253
255
254
254
255
255
255
255
255
255
255
255
255
255
255
255
255
255
255
255
255
255
255
255
255
254
252
251
244
218
218
229
155
154
217
54
49
216
36
28
216
36
28
216
36
28
216
36
28
216
36
28
216
36
28
216
36
28
216
36
28
216
36
28
216
36
28
216
36
28
216
36
28
216
36
28
216
36
28
216
36
28
216
36
28
216
36
28
216
36
28
239
200
199
235
183
183
216
36
28
216
36
28
216
36
28
216
36
28
216
36
28
216
36
28
216
36
28
216
36
28
216
36
28
216
36
28
216
36
28
216
36
28
216
36
28
216
36
28
216
36
28
216
36
28
227
140
139
245
220
220
255
254
254
255
255
255
255
255
255
255
255
255
255
255
255
253
250
250
246
225
225
238
196
195
231
166
165
226
137
135
222
109
107
219
83
81
218
74
70
218
74
70
218
76
73
221
101
99
224
126
125
229
155
154
235
184
184
243
214
214
251
242
241
255
255
255
255
255
255
255
255
255
255
255
255
255
255
255
250
240
240
234
176
175
218
67
63
216
36
28
216
36
28
216
36
28
216
36
28
216
36
28
216
36
28
216
36
28
216
36
28
216
36
28
216
36
28
216
36
28
216
36
28
216
36
28
216
36
28
216
36
28
216
36
28
239
200
199
235
183
183
216
36
28
216
36
28
216
36
28
216
36
28
216
36
28
216
36
28
216
36
28
216
36
28
216
36
28
216
36
28
216
36
28
216
36
28
216
36
28
216
36
28
223
120
118
244
219
219
255
255
255
255
255
255
255
255
255
255
255
255
252
245
245
240
203
203
228
147
146
218
65
61
216
36
28
216
36
28
216
36
28
216
36
28
216
36
28
216
36
28
216
36
28
216
36
28
216
36
28
216
36
28
216
36
28
216
36
28
216
36
28
216
36
28
216
44
38
223
117
116
235
184
184
248
232
232
255
255
255
255
255
255
255
255
255
255
255
255
251
241
241
231
163
163
216
44
38
216
36
28
216
36
28
216
36
28
216
36
28
216
36
28
216
36
28
216
36
28
216
36
28
216
36
28
216
36
28
216
36
28
216
36
28
216
36
28
216
36
28
239
200
199
235
183
183
216
36
28
216
36
28
216
36
28
216
36
28
216
36
28
216
36
28
216
36
28
216
36
28
216
36
28
216
36
28
216
36
28
216
36
28
218
65
61
237
192
192
254
252
252
255
255
255
255
255
255
255
255
255
247
230
230
231
163
162
218
65
61
216
36
28
216
36
28
216
36
28
216
36
28
216
36
28
216
36
28
216
36
28
216
36
28
216
36
28
216
36
28
216
36
28
216
36
28
216
36
28
216
36
28
216
36
28
216
36
28
216
36
28
216
36
28
216
36
28
216
36
28
216
44
38
224
126
125
241
208
208
254
252
251
255
255
255
255
255
255
255
255
255
246
225
225
223
114
112
216
36
28
216
36
28
216
36
28
216
36
28
216
36
28
216
36
28
216
36
28
216
36
28
216
36
28
216
36
28
216
36
28
216
36
28
216
36
28
239
200
199
235
183
183
216
36
28
216
36
28
216
36
28
216
36
28
216
36
28
216
36
28
216
36
28
216
36
28
216
36
28
216
36
28
216
36
28
224
121
119
249
234
234
255
255
255
255
255
255
255
255
255
248
232
232
228
146
145
216
44
38
216
36
28
216
36
28
216
36
28
216
36
28
216
36
28
217
57
52
224
121
119
232
166
166
238
194
194
242
212
212
245
223
223
247
230
230
248
232
231
246
226
225
244
217
217
240
202
202
234
178
177
227
140
139
219
78
75
216
36
28
216
36
28
216
36
28
216
36
28
216
36
28
216
36
28
221
104
102
241
206
206
254
253
253
255
255
255
255
255
255
253
250
250
233
173
172
216
44
38
216
36
28
216
36
28
216
36
28
216
36
28
216
36
28
216
36
28
216
36
28
216
36
28
216
36
28
216
36
28
216
36
28
239
200
199
235
183
183
216
36
28
216
36
28
216
36
28
216
36
28
216
36
28
216
36
28
216
36
28
216
36
28
216
36
28
216
36
28
231
163
163
253
250
250
255
255
255
255
255
255
253
248
247
233
172
171
217
51
46
216
36
28
216
36
28
216
36
28
216
36
28
218
69
66
231
162
161
243
214
214
252
245
245
255
255
255
255
255
255
255
255
255
255
255
255
255
255
255
255
255
255
255
255
255
255
255
255
255
255
255
255
255
255
255
255
255
255
255
255
254
252
252
247
228
227
236
185
184
222
106
104
216
36
28
216
36
28
216
36
28
216
36
28
216
36
28
224
126
125
247
229
229
255
255
255
255
255
255
255
255
255
242
211
210
218
69
66
216
36
28
216
36
28
216
36
28
216
36
28
216
36
28
216
36
28
216
36
28
216
36
28
216
36
28
216
36
28
239
200
199
235
183
183
216
36
28
216
36
28
216
36
28
216
36
28
216
36
28
216
36
28
216
36
28
216
36
28
216
44
38
237
189
189
255
254
254
255
255
255
255
255
255
245
222
222
221
101
99
216
36
28
216
36
28
216
36
28
216
36
28
222
109
107
239
200
199
253
248
247
255
255
255
255
255
255
255
255
255
255
255
255
255
255
255
255
255
255
255
255
255
254
252
252
253
249
249
253
249
249
253
250
250
255
255
255
255
255
255
255
255
255
255
255
255
255
255
255
255
255
255
255
255
255
255
254
254
245
221
221
228
150
149
216
44
38
216
36
28
216
36
28
216
36
28
217
51
46
235
184
184
254
252
252
255
255
255
255
255
255
247
230
229
220
92
89
216
36
28
216
36
28
216
36
28
216
36
28
216
36
28
216
36
28
216
36
28
216
36
28
216
36
28
239
200
199
235
183
183
216
36
28
216
36
28
216
36
28
216
36
28
216
36
28
216
36
28
216
36
28
217
48
42
240
201
201
255
255
255
255
255
255
255
254
254
237
189
189
217
48
42
216
36
28
216
36
28
216
36
28
220
95
93
240
204
204
254
252
252
255
255
255
255
255
255
255
255
255
255
255
255
250
238
238
241
206
205
232
169
169
225
133
131
220
90
88
217
51
46
217
51
46
217
51
46
217
51
46
218
71
68
223
119
117
230
156
155
237
192
191
246
227
226
254
252
252
255
255
255
255
255
255
255
255
255
255
255
255
248
231
230
227
142
141
216
36
28
216
36
28
216
36
28
216
36
28
226
136
134
251
243
243
255
255
255
255
255
255
249
237
237
221
99
97
216
36
28
216
36
28
216
36
28
216
36
28
216
36
28
216
36
28
216
36
28
216
36
28
239
200
199
235
183
183
216
36
28
216
36
28
216
36
28
216
36
28
216
36
28
216
36
28
216
44
38
240
201
201
255
255
255
255
255
255
254
251
251
230
160
159
216
36
28
216
36
28
216
36
28
217
48
42
233
174
173
253
248
248
255
255
255
255
255
255
255
255
255
252
244
244
238
194
194
224
121
119
216
44
38
216
36
28
216
36
28
216
36
28
216
36
28
216
36
28
216
36
28
216
36
28
216
36
28
216
36
28
216
36
28
216
36
28
216
36
28
216
36
28
220
88
86
232
171
170
247
229
229
255
255
255
255
255
255
255
255
255
255
254
254
242
212
212
220
90
88
216
36
28
216
36
28
216
36
28
221
101
99
249
234
234
255
255
255
255
255
255
250
237
237
220
96
94
216
36
28
216
36
28
216
36
28
216
36
28
216
36
28
216
36
28
216
36
28
239
200
199
235
183
183
216
36
28
216
36
28
216
36
28
216
36
28
216
36
28
216
36
28
236
189
188
255
255
255
255
255
255
253
250
250
227
144
143
216
36
28
216
36
28
216
36
28
220
92
89
245
221
221
255
255
255
255
255
255
255
255
255
251
242
241
232
171
170
218
67
63
216
36
28
216
36
28
216
36
28
216
36
28
216
36
28
216
36
28
216
36
28
216
36
28
216
36
28
216
36
28
216
36
28
216
36
28
216
36
28
216
36
28
216
36
28
216
36
28
216
36
28
216
36
28
216
40
33
225
134
132
245
221
221
255
255
255
255
255
255
255
255
255
252
244
244
228
148
147
216
36
28
216
36
28
216
36
28
219
81
79
247
229
228
255
255
255
255
255
255
248
233
233
219
78
75
216
36
28
216
36
28
216
36
28
216
36
28
216
36
28
216
36
28
239
200
199
235
183
183
216
36
28
216
36
28
216
36
28
216
36
28
216
36
28
230
161
160
255
254
254
255
255
255
254
252
251
227
144
143
216
36
28
216
36
28
216
36
28
225
128
126
251
241
241
255
255
255
255
255
255
254
252
252
237
190
189
218
69
66
216
36
28
216
36
28
216
36
28
216
36
28
216
40
33
220
90
88
230
157
156
238
194
194
244
217
216
247
230
230
250
238
238
250
239
239
248
234
233
245
223
222
240
204
204
233
174
173
223
120
118
217
48
42
216
36
28
216
36
28
216
36
28
216
36
28
216
40
33
228
149
148
250
239
239
255
255
255
255
255
255
254
253
253
235
183
183
216
40
33
216
36
28
216
36
28
219
81
79
248
231
231
255
255
255
255
255
255
244
218
218
217
48
42
216
36
28
216
36
28
216
36
28
216
36
28
216
36
28
239
200
199
235
183
183
216
36
28
216
36
28
216
36
28
216
36
28
223
119
117
253
250
250
255
255
255
255
254
254
230
160
159
216
36
28
216
36
28
216
36
28
227
143
142
253
249
249
255
255
255
255
255
255
249
235
235
224
125
124
216
36
28
216
36
28
216
36
28
216
36
28
218
74
70
233
172
171
246
227
226
254
253
253
255
255
255
255
255
255
255
255
255
255
255
255
255
255
255
255
255
255
255
255
255
255
255
255
255
255
255
255
255
255
255
255
255
251
241
241
238
196
196
223
114
112
216
36
28
216
36
28
216
36
28
216
36
28
218
74
70
241
205
205
255
255
255
255
255
255
255
255
255
239
200
200
216
44
38
216
36
28
216
36
28
220
93
91
250
239
239
255
255
255
255
255
255
236
188
188
216
36
28
216
36
28
216
36
28
216
36
28
216
36
28
239
200
199
235
183
183
216
36
28
216
36
28
216
36
28
217
62
58
248
233
232
255
255
255
255
255
255
237
189
189
216
36
28
216
36
28
216
36
28
227
143
142
254
252
251
255
255
255
255
255
255
243
216
215
218
74
70
216
36
28
216
36
28
216
36
28
218
74
70
236
186
186
252
247
247
255
255
255
255
255
255
255
255
255
255
255
255
255
255
255
255
255
255
255
255
255
255
255
255
255
255
255
255
255
255
255
255
255
255
255
255
255
255
255
255
255
255
255
255
255
255
255
255
255
254
254
243
215
215
223
120
118
216
36
28
216
36
28
216
36
28
216
40
33
232
168
167
254
252
251
255
255
255
255
255
255
240
202
201
216
44
38
216
36
28
216
36
28
224
122
121
253
249
249
255
255
255
254
253
253
226
137
135
216
36
28
216
36
28
216
36
28
216
36
28
239
200
199
235
183
183
216
36
28
216
36
28
216
36
28
237
191
191
255
255
255
255
255
255
245
223
223
217
51
46
216
36
28
216
36
28
224
126
125
253
249
249
255
255
255
255
255
255
240
202
201
217
51
46
216
36
28
216
36
28
216
36
28
229
154
153
251
242
241
255
255
255
255
255
255
255
255
255
255
255
255
255
255
255
255
255
255
255
255
255
255
255
255
255
255
255
255
255
255
255
255
255
255
255
255
255
255
255
255
255
255
255
255
255
255
255
255
255
255
255
255
255
255
255
255
255
255
255
255
254
252
252
238
197
196
218
69
66
216
36
28
216
36
28
216
36
28
227
144
143
253
249
249
255
255
255
255
255
255
237
192
191
216
36
28
216
36
28
216
36
28
232
166
166
255
255
255
255
255
255
249
237
237
218
65
61
216
36
28
216
36
28
216
36
28
239
200
199
235
183
183
216
36
28
216
36
28
223
115
113
254
252
251
255
255
255
253
248
247
221
101
99
216
36
28
216
36
28
220
92
89
251
242
241
255
255
255
255
255
255
240
202
201
216
44
38
216
36
28
216
36
28
217
62
58
240
203
203
255
254
254
255
255
255
255
255
255
255
255
255
255
255
255
255
255
255
255
255
255
255
255
255
255
255
255
255
255
255
255
255
255
255
255
255
255
255
255
255
255
255
255
255
255
255
255
255
255
255
255
255
255
255
255
255
255
255
255
255
255
255
255
255
255
255
255
255
255
255
255
255
249
234
234
223
116
115
216
36
28
216
36
28
216
36
28
227
140
139
254
251
251
255
255
255
255
254
254
231
163
163
216
36
28
216
36
28
216
40
33
243
215
214
255
255
255
255
255
255
236
189
188
216
36
28
216
36
28
216
36
28
239
200
199
235
183
183
216
36
28
216
36
28
244
218
218
255
255
255
255
255
255
233
173
172
216
36
28
216
36
28
217
48
42
245
221
221
255
255
255
255
255
255
243
215
215
217
51
46
216
36
28
216
36
28
219
83
81
246
226
226
255
255
255
255
255
255
255
255
255
255
255
255
255
255
255
255
255
255
255
255
255
255
255
255
255
255
255
255
255
255
255
255
255
255
255
255
255
255
255
255
255
255
255
255
255
255
255
255
255
255
255
255
255
255
255
255
255
255
255
255
255
255
255
255
255
255
255
255
255
255
255
255
255
255
255
255
255
255
253
248
248
227
143
142
216
36
28
216
36
28
216
36
28
230
157
156
255
254
254
255
255
255
253
249
249
223
115
113
216
36
28
216
36
28
220
96
94
253
248
247
255
255
255
253
250
250
221
101
99
216
36
28
216
36
28
239
200
199
235
183
183
216
36
28
225
132
130
255
254
254
255
255
255
248
233
232
217
48
42
216
36
28
216
36
28
233
175
174
255
255
255
255
255
255
249
235
235
218
71
68
216
36
28
216
36
28
219
81
79
247
230
229
255
255
255
255
255
255
255
255
255
255
255
255
255
255
255
255
255
255
255
255
255
255
255
255
255
255
255
255
255
255
255
255
255
255
255
255
255
255
255
255
255
255
255
255
255
255
255
255
255
255
255
255
255
255
255
255
255
255
255
255
255
255
255
255
255
255
255
255
255
255
255
255
255
255
255
255
255
255
255
255
255
255
255
255
254
251
251
228
146
145
216
36
28
216
36
28
216
36
28
237
190
189
255
255
255
255
255
255
247
228
228
217
51
46
216
36
28
216
36
28
235
181
180
255
255
255
255
255
255
240
203
203
216
36
28
216
36
28
239
200
199
235
183
183
216
36
28
244
219
219
255
255
255
255
255
255
229
151
150
216
36
28
216
36
28
220
96
94
253
248
248
255
255
255
254
252
251
224
123
122
216
36
28
216
36
28
218
65
61
246
226
226
255
255
255
255
255
255
255
255
255
255
255
255
255
255
255
255
255
255
255
255
255
255
255
255
255
255
255
255
255
255
255
255
255
255
255
255
255
255
255
255
255
255
255
255
255
255
255
255
255
255
255
255
255
255
255
255
255
255
255
255
255
255
255
255
255
255
255
255
255
255
255
255
255
255
255
255
255
255
255
255
255
255
255
255
255
255
255
255
255
255
253
250
250
225
131
129
216
36
28
216
36
28
217
51
46
246
227
226
255
255
255
255
255
255
233
174
173
216
36
28
216
36
28
217
62
58
251
242
241
255
255
255
254
251
251
221
98
96
216
36
28
239
200
199
235
183
183
223
116
115
254
253
253
255
255
255
248
231
231
216
44
38
216
36
28
216
36
28
241
205
205
255
255
255
255
255
255
236
189
188
216
36
28
216
36
28
216
40
33
240
204
204
255
255
255
255
255
255
255
255
255
255
255
255
255
255
255
255
255
255
255
255
255
255
255
255
255
255
255
255
255
255
255
255
255
255
255
255
255
255
255
255
255
255
255
255
255
255
255
255
255
255
255
255
255
255
255
255
255
255
255
255
255
255
255
255
255
255
255
255
255
255
255
255
255
255
255
255
255
255
255
255
255
255
255
255
255
255
255
255
255
255
255
255
255
255
255
255
251
242
242
220
92
89
216
36
28
216
36
28
223
115
113
254
252
251
255
255
255
252
245
245
219
80
77
216
36
28
216
36
28
234
176
175
255
255
255
255
255
255
237
191
191
216
36
28
239
200
199
235
183
183
238
196
195
255
255
255
255
255
255
231
163
162
216
36
28
216
36
28
222
110
108
254
252
252
255
255
255
251
241
241
218
67
63
216
36
28
216
36
28
230
156
155
255
255
255
255
255
255
255
255
255
255
255
255
255
255
255
255
255
255
255
255
255
255
255
255
255
255
255
255
255
255
255
255
255
255
255
255
255
255
255
255
254
254
250
237
237
243
213
213
239
199
198
239
199
198
241
206
205
247
228
227
253
250
250
255
255
255
255
255
255
255
255
255
255
255
255
255
255
255
255
255
255
255
255
255
255
255
255
255
255
255
255
255
255
255
255
255
255
255
255
255
255
255
244
217
216
216
40
33
216
36
28
216
36
28
238
194
194
255
255
255
255
255
255
236
186
186
216
36
28
216
36
28
218
74
70
253
247
247
255
255
255
251
243
243
217
57
52
239
200
199
236
187
186
251
243
243
255
255
255
252
246
246
218
65
61
216
36
28
216
36
28
240
201
201
255
255
255
255
255
255
232
168
167
216
36
28
216
36
28
219
78
75
251
243
243
255
255
255
255
255
255
255
255
255
255
255
255
255
255
255
255
255
255
255
255
255
255
255
255
255
255
255
255
255
255
255
255
255
253
247
247
237
189
189
222
109
107
216
36
28
216
36
28
216
36
28
216
36
28
216
36
28
216
36
28
218
76
73
231
162
161
248
231
230
255
255
255
255
255
255
255
255
255
255
255
255
255
255
255
255
255
255
255
255
255
255
255
255
255
255
255
255
255
255
255
255
255
255
255
255
230
158
157
216
36
28
216
36
28
219
87
84
253
249
249
255
255
255
252
245
245
218
69
66
216
36
28
216
36
28
239
200
200
255
255
255
255
255
255
228
148
147
239
200
199
245
220
220
255
255
255
255
255
255
240
203
203
216
36
28
216
36
28
218
74
70
253
248
248
255
255
255
251
243
243
217
62
58
216
36
28
216
36
28
237
191
191
255
255
255
255
255
255
255
255
255
255
255
255
255
255
255
255
255
255
255
255
255
255
255
255
255
255
255
255
255
255
255
255
255
241
207
206
219
85
82
216
36
28
216
36
28
216
36
28
216
36
28
216
36
28
216
36
28
216
36
28
216
36
28
216
36
28
216
36
28
216
44
38
232
166
166
253
248
247
255
255
255
255
255
255
255
255
255
255
255
255
255
255
255
255
255
255
255
255
255
255
255
255
255
255
255
255
255
255
250
239
239
217
62
58
216
36
28
216
36
28
238
196
195
255
255
255
255
255
255
231
165
164
216
36
28
216
36
28
225
133
131
255
255
255
255
255
255
241
206
205
239
200
199
254
252
252
255
255
255
255
255
255
227
143
142
216
36
28
216
36
28
231
163
163
255
255
255
255
255
255
237
189
189
216
36
28
216
36
28
219
81
79
253
248
248
255
255
255
255
255
255
255
255
255
255
255
255
255
255
255
255
255
255
255
255
255
255
255
255
255
255
255
254
253
253
233
172
172
216
40
33
216
36
28
216
36
28
216
36
28
216
36
28
216
36
28
216
36
28
216
36
28
216
36
28
216
36
28
216
36
28
216
36
28
216
36
28
216
36
28
223
114
112
250
239
239
255
255
255
255
255
255
255
255
255
255
255
255
255
255
255
255
255
255
255
255
255
255
255
255
255
255
255
255
255
255
232
168
167
216
36
28
216
36
28
222
113
111
254
253
253
255
255
255
245
223
223
216
36
28
216
36
28
217
48
42
251
242
242
255
255
255
251
243
243
240
202
201
255
255
255
255
255
255
253
249
249
218
69
66
216
36
28
216
36
28
243
216
215
255
255
255
255
254
254
222
113
111
216
36
28
216
36
28
234
178
177
255
255
255
255
255
255
255
255
255
255
255
255
255
255
255
255
255
255
255
255
255
255
255
255
255
255
255
255
255
255
232
169
169
216
36
28
216
36
28
216
36
28
216
36
28
216
36
28
216
36
28
216
36
28
216
36
28
216
36
28
216
36
28
216
36
28
216
36
28
216
36
28
216
36
28
216
36
28
216
36
28
221
104
102
251
242
242
255
255
255
255
255
255
255
255
255
255
255
255
255
255
255
255
255
255
255
255
255
255
255
255
255
255
255
248
234
233
216
40
33
216
36
28
216
36
28
247
228
227
255
255
255
254
252
252
220
88
86
216
36
28
216
36
28
241
206
205
255
255
255
255
255
255
246
225
224
255
255
255
255
255
255
246
224
224
216
36
28
216
36
28
217
57
52
253
248
248
255
255
255
249
235
235
216
40
33
216
36
28
216
36
28
248
232
232
255
255
255
255
255
255
255
255
255
255
255
255
255
255
255
255
255
255
255
255
255
255
255
255
255
255
255
240
202
202
216
36
28
216
36
28
216
36
28
216
36
28
216
36
28
216
36
28
216
36
28
216
36
28
216
36
28
216
36
28
216
36
28
216
36
28
216
36
28
216
36
28
216
36
28
216
36
28
216
36
28
216
36
28
226
136
134
254
253
253
255
255
255
255
255
255
255
255
255
255
255
255
255
255
255
255
255
255
255
255
255
255
255
255
255
255
255
224
125
124
216
36
28
216
36
28
235
181
181
255
255
255
255
255
255
230
159
159
216
36
28
216
36
28
231
163
163
255
255
255
255
255
255
254
251
251
255
255
255
255
255
255
238
194
194
216
36
28
216
36
28
225
131
129
255
255
255
255
255
255
239
199
199
216
36
28
216
36
28
222
109
107
255
254
254
255
255
255
255
255
255
255
255
255
255
255
255
255
255
255
255
255
255
255
255
255
255
255
255
251
243
242
218
76
73
216
36
28
216
36
28
216
36
28
216
36
28
216
36
28
216
36
28
216
36
28
216
36
28
216
36
28
216
36
28
216
36
28
216
36
28
216
36
28
216
36
28
216
36
28
216
36
28
216
36
28
216
36
28
216
36
28
239
200
199
255
255
255
255
255
255
255
255
255
255
255
255
255
255
255
255
255
255
255
255
255
255
255
255
255
255
255
236
188
188
216
36
28
216
36
28
224
123
122
255
255
255
255
255
255
240
202
201
216
36
28
216
36
28
222
113
111
255
255
255
255
255
255
255
255
255
255
255
255
255
255
255
231
162
161
216
36
28
216
36
28
233
173
172
255
255
255
255
255
255
230
159
159
216
36
28
216
36
28
232
169
168
255
255
255
255
255
255
255
255
255
255
255
255
255
255
255
255
255
255
255
255
255
255
255
255
255
255
255
234
177
177
216
36
28
216
36
28
216
36
28
216
36
28
216
36
28
216
36
28
216
36
28
216
36
28
216
36
28
216
36
28
216
36
28
216
36
28
216
36
28
216
36
28
216
36
28
216
36
28
216
36
28
216
36
28
216
36
28
216
36
28
220
95
93
254
251
251
255
255
255
255
255
255
255
255
255
255
255
255
255
255
255
255
255
255
255
255
255
255
255
255
246
226
226
216
36
28
216
36
28
217
62
58
253
248
248
255
255
255
247
229
228
216
36
28
216
36
28
217
62
58
253
248
248
255
255
255
255
255
255
255
255
255
255
255
255
225
129
127
216
36
28
216
36
28
239
200
200
255
255
255
255
255
255
223
114
112
216
36
28
216
36
28
240
204
204
255
255
255
255
255
255
255
255
255
255
255
255
255
255
255
255
255
255
255
255
255
255
255
255
254
251
251
219
85
82
216
36
28
216
36
28
216
36
28
216
36
28
216
36
28
216
36
28
216
36
28
216
36
28
216
36
28
216
36
28
216
36
28
216
36
28
216
36
28
216
36
28
216
36
28
216
36
28
216
36
28
216
36
28
216
36
28
216
36
28
216
36
28
243
213
213
255
255
255
255
255
255
255
255
255
255
255
255
255
255
255
255
255
255
255
255
255
255
255
255
253
250
250
217
54
49
216
36
28
216
36
28
248
231
230
255
255
255
253
248
248
216
44
38
216
36
28
216
36
28
249
236
236
255
255
255
255
255
255
255
255
255
255
255
255
220
92
89
216
36
28
216
36
28
244
218
218
255
255
255
254
252
252
218
71
68
216
36
28
216
36
28
246
226
226
255
255
255
255
255
255
255
255
255
255
255
255
255
255
255
255
255
255
255
255
255
255
255
255
246
225
224
216
36
28
216
36
28
216
36
28
216
36
28
216
36
28
216
36
28
216
36
28
216
36
28
216
36
28
216
36
28
216
36
28
216
36
28
216
36
28
216
36
28
216
36
28
216
36
28
216
36
28
216
36
28
216
36
28
216
36
28
216
36
28
216
36
28
231
164
163
255
255
255
255
255
255
255
255
255
255
255
255
255
255
255
255
255
255
255
255
255
255
255
255
255
255
255
222
109
107
216
36
28
216
36
28
242
212
212
255
255
255
255
254
254
219
87
84
216
36
28
216
36
28
245
221
221
255
255
255
255
255
255
255
255
255
254
252
252
218
71
68
216
36
28
216
36
28
247
230
229
255
255
255
252
245
245
217
54
49
216
36
28
216
40
33
250
239
239
255
255
255
255
255
255
255
255
255
255
255
255
255
255
255
255
255
255
255
255
255
255
255
255
238
194
194
216
36
28
216
36
28
216
36
28
216
36
28
216
36
28
216
36
28
216
36
28
216
36
28
216
36
28
216
36
28
216
36
28
216
36
28
216
36
28
216
36
28
216
36
28
216
36
28
216
36
28
216
36
28
216
36
28
216
36
28
216
36
28
216
36
28
223
115
113
255
255
255
255
255
255
255
255
255
255
255
255
255
255
255
255
255
255
255
255
255
255
255
255
255
255
255
226
140
138
216
36
28
216
36
28
239
199
198
255
255
255
255
255
255
223
117
116
216
36
28
216
36
28
242
212
212
255
255
255
255
255
255
255
255
255
254
253
253
231
166
165
218
67
63
217
51
46
249
234
234
255
255
255
250
240
240
217
51
46
217
51
46
217
62
58
252
246
246
255
255
255
255
255
255
255
255
255
255
255
255
255
255
255
255
255
255
255
255
255
255
255
255
234
177
176
217
51
46
217
51
46
217
51
46
217
51
46
217
51
46
217
51
46
217
51
46
217
51
46
217
51
46
217
51
46
217
51
46
217
51
46
217
51
46
217
51
46
217
51
46
217
51
46
217
51
46
217
51
46
217
51
46
217
51
46
217
51
46
217
51
46
220
90
88
254
252
252
255
255
255
255
255
255
255
255
255
255
255
255
255
255
255
255
255
255
255
255
255
255
255
255
230
156
155
217
51
46
217
51
46
237
190
189
255
255
255
255
255
255
225
134
132
217
51
46
218
71
68
244
217
217
255
255
255
255
255
255
255
255
255
255
255
255
255
255
255
254
251
251
252
246
246
255
254
254
255
255
255
255
254
254
252
246
246
252
246
246
252
246
246
255
255
255
255
255
255
255
255
255
255
255
255
255
255
255
255
255
255
255
255
255
255
255
255
255
255
255
253
249
249
252
246
246
252
246
246
252
246
246
252
246
246
252
246
246
252
246
246
252
246
246
252
246
246
252
246
246
252
246
246
252
246
246
252
246
246
252
246
246
252
246
246
252
246
246
252
246
246
252
246
246
252
246
246
252
246
246
252
246
246
252
246
246
252
246
246
252
246
246
255
255
255
255
255
255
255
255
255
255
255
255
255
255
255
255
255
255
255
255
255
255
255
255
255
255
255
253
249
249
252
246
246
252
246
246
253
250
250
255
255
255
255
255
255
253
248
247
252
246
246
254
252
251
255
255
255
255
255
255
255
255
255
